<svg width="21" height="23" viewBox="0 0 21 23" fill="none" xmlns="http://www.w3.org/2000/svg">
<g clip-path="url(#clip0_1_375)">
<path d="M10.5 0.588867C17.8855 0.588867 16.6599 8.77558 17.217 11.439C17.9439 14.909 19.7691 14.909 20.1352 14.909C20.6127 14.909 21 15.3494 21 15.8905C21 16.4317 20.6127 16.8721 20.1352 16.8721C17.9333 16.8721 16.0498 14.3572 15.5351 11.8953C14.734 8.05931 15.9649 2.55198 10.5 2.55198C5.03512 2.55198 6.27135 8.05931 5.46488 11.8953C4.72739 15.4289 2.63694 16.8721 0.864831 16.8721C0.387317 16.8721 0 16.4317 0 15.8905C0 15.3494 0.387317 14.909 0.864831 14.909C1.28929 14.909 3.05609 14.909 3.78297 11.439C4.34007 8.77558 3.11445 0.588867 10.5 0.588867Z" fill="#818694"/>
<path d="M14.2688 18.5859C14.7197 18.5859 15.1018 18.9786 15.1336 19.4985C15.1654 20.0397 14.8046 20.5066 14.3324 20.5437C13.892 20.5756 13.8231 20.7029 13.5737 21.1751C13.075 22.0983 12.4277 23.0003 10.507 23.0003C8.58634 23.0003 7.93904 22.0983 7.435 21.1751C7.18033 20.7029 7.11135 20.5756 6.67098 20.5437C6.19347 20.5066 5.83268 20.0397 5.86982 19.4985C5.90165 18.9573 6.3155 18.5541 6.79301 18.5912C8.12474 18.6974 8.59695 19.5728 8.90999 20.1564C9.20711 20.7135 9.39281 21.0478 10.5017 21.0478C11.6106 21.0478 11.791 20.7135 12.0934 20.1617C12.4065 19.5781 12.8787 18.7027 14.2104 18.5965C14.2316 18.5965 14.2528 18.5965 14.2688 18.5965V18.5859Z" fill="#818694"/>
<path d="M1.32197 14.9082H19.5259C20.0936 14.9082 20.5817 15.3486 20.5817 15.8898C20.5817 16.4309 20.465 16.7493 20.1307 16.8713H0.865679C0.685285 16.8713 0.664062 16.4309 0.664062 15.8898C0.664062 15.3486 0.75426 14.9082 1.32197 14.9082Z" fill="#818694"/>
</g>
<defs>
<clipPath id="clip0_1_375">
<rect width="21" height="22.4113" fill="white" transform="translate(0 0.588867)"/>
</clipPath>
</defs>
</svg>
