<svg width="25" height="18" viewBox="0 0 25 18" fill="none" xmlns="http://www.w3.org/2000/svg">
<path d="M16.4062 0H9.40625C4.71183 0 0.90625 3.80558 0.90625 8.5C0.90625 13.1944 4.71183 17 9.40625 17H16.4062C21.1007 17 24.9062 13.1944 24.9062 8.5C24.9062 3.80558 21.1007 0 16.4062 0Z" fill="url(#paint0_linear_1_379)"/>
<path d="M11.1647 5.08V13H9.83269V6.592L7.97269 7.792L7.36069 6.796L9.94069 5.08H11.1647ZM18.9235 13H13.8235V11.86L15.7795 9.844C16.3715 9.236 16.7875 8.76 17.0275 8.416C17.2675 8.072 17.3875 7.696 17.3875 7.288C17.3875 6.872 17.2715 6.576 17.0395 6.4C16.8075 6.224 16.4275 6.136 15.8995 6.136C15.4035 6.136 14.8555 6.192 14.2555 6.304L13.9555 6.352L13.8715 5.296C14.6475 5.064 15.4515 4.948 16.2835 4.948C17.9395 4.948 18.7675 5.684 18.7675 7.156C18.7675 7.732 18.6395 8.232 18.3835 8.656C18.1355 9.08 17.6875 9.592 17.0395 10.192L15.3475 11.836H18.9235V13Z" fill="#F1F9FF"/>
<defs>
<linearGradient id="paint0_linear_1_379" x1="0.900598" y1="17" x2="9.45757" y2="-2.95436" gradientUnits="userSpaceOnUse">
<stop stop-color="#7800C6"/>
<stop offset="1" stop-color="#7000FF"/>
</linearGradient>
</defs>
</svg>
